<svg xmlns="http://www.w3.org/2000/svg" width="36" height="36" viewBox="0 0 36 36" fill="none">
<g clip-path="url(#clip0_178_50)">
<path d="M0 4V32C0 34.2 1.8 36 4 36H32C34.2 36 36 34.2 36 32V4C36 1.8 34.2 0 32 0H4C1.8 0 0 1.8 0 4Z" fill="#4CAF50"/>
<path d="M0.599976 1.99998L6.59998 7.99998C6.19998 8.59998 5.99998 9.29998 5.99998 9.99998C5.99998 12.2 7.79998 14 9.99998 14C12.2 14 14 12.2 14 9.99998C14 7.79998 12.2 5.99998 9.99998 5.99998C9.29998 5.99998 8.59998 6.19998 7.99998 6.59998L1.99998 0.599976C1.39998 0.899976 0.899976 1.39998 0.599976 1.99998ZM9.99998 8.49998C10.8 8.49998 11.5 9.19998 11.5 9.99998C11.5 10.8 10.8 11.5 9.99998 11.5C9.19998 11.5 8.49998 10.8 8.49998 9.99998C8.49998 9.19998 9.19998 8.49998 9.99998 8.49998ZM35.4 34L29.4 28C29.8 27.4 30 26.7 30 26C30 23.8 28.2 22 26 22C23.8 22 22 23.8 22 26C22 28.2 23.8 30 26 30C26.7 30 27.4 29.8 28 29.4L34 35.4C34.6 35.1 35.1 34.6 35.4 34ZM26 27.5C25.2 27.5 24.5 26.8 24.5 26C24.5 25.2 25.2 24.5 26 24.5C26.8 24.5 27.5 25.2 27.5 26C27.5 26.8 26.8 27.5 26 27.5ZM9.99998 30C12.2 30 14 28.2 14 26C14 25.3 13.8 24.6 13.4 24L24 13.4C24.6 13.8 25.3 14 26 14C28.2 14 30 12.2 30 9.99998C30 7.79998 28.2 5.99998 26 5.99998C23.8 5.99998 22 7.79998 22 9.99998C22 10.7 22.2 11.4 22.6 12L12 22.6C11.4 22.2 10.7 22 9.99998 22C7.79998 22 5.99998 23.8 5.99998 26C5.99998 28.2 7.79998 30 9.99998 30ZM26 8.49998C26.8 8.49998 27.5 9.19998 27.5 9.99998C27.5 10.8 26.8 11.5 26 11.5C25.2 11.5 24.5 10.8 24.5 9.99998C24.5 9.19998 25.2 8.49998 26 8.49998ZM9.99998 24.5C10.8 24.5 11.5 25.2 11.5 26C11.5 26.8 10.8 27.5 9.99998 27.5C9.19998 27.5 8.49998 26.8 8.49998 26C8.49998 25.2 9.19998 24.5 9.99998 24.5Z" fill="#FFC107"/>
</g>
<defs>
<clipPath id="clip0_178_50">
<rect width="36" height="36" fill="white"/>
</clipPath>
</defs>
</svg>