<svg width="446" height="421" viewBox="0 0 446 421" fill="none" xmlns="http://www.w3.org/2000/svg">
<path d="M91 205V183.5L135 167V121.5L144.5 118L154 114.5V162.5L196 144V167L154 186V281.5L159 279.143V244V189.076L200 171.5V138L159 156V109.5L131 118V154.5V164L91 179.309L86 180.5V211.5L129.5 196V248.5V291L135 288.5V189.076L91 205Z" fill="#939393"/>
<path d="M159 279.143L224 248.5L392.5 284L236.5 383L60.5 324.5L129.5 291V248.5L0 264V421H446V267L313.5 237.27L236.5 226L159 244V279.143Z" fill="#645A4C"/>
<path fill-rule="evenodd" clip-rule="evenodd" d="M154 281.5L144.5 285L135 288.5L129.5 291L60.5 324.5L236.5 383L392.5 284L224 248.5L159 279.143L154 281.5ZM224 259.5L161.5 288.5L84.5 321L233 368.5L365 288.5L224 259.5Z" fill="#515151"/>
<path d="M313.5 237.27L333.5 241.758V144L313.5 121.5V174.5V237.27Z" fill="#483D2C"/>
<path d="M356 144L387.5 101.5L313.5 121.5L333.5 144H356Z" fill="#537631"/>
<path d="M387.5 101.5L356 61.5L334.75 91.5L313.5 121.5L387.5 101.5Z" fill="#7FAE44"/>
<path d="M313.5 121.5L334.75 91.5L356 61.5L304.019 83.7776L313.5 121.5Z" fill="#68CE29"/>
<path d="M275.5 96L313.5 121.5L304.019 83.7776L275.5 96Z" fill="#5CB134"/>
<path d="M265.5 51.5L275.5 96L304.019 83.7776L296.775 54.9558L265.5 51.5Z" fill="#59A809"/>
<path d="M290 28L265.5 51.5L296.775 54.9558L290 28Z" fill="#80D219"/>
<path d="M340 19L290 28L356 61.5L340 19Z" fill="#76A572"/>
<path d="M356 61.5L290 28L296.775 54.9558L356 61.5Z" fill="#4BA91F"/>
<path d="M304.019 83.7776L356 61.5L296.775 54.9558L304.019 83.7776Z" fill="#A6DE61"/>
<path d="M378.5 43L356 61.5L387.5 101.5L378.5 43Z" fill="#84E04B"/>
<path d="M340 19L356 61.5L378.5 43L340 19Z" fill="#85C13A"/>
<path d="M236.5 226L313.5 237.27V174.5V121.5L275.5 96L265.5 51.5L290 28L340 19L378.5 43L387.5 101.5L356 144H333.5V241.758L446 267V0L206.5 0L218.192 76.5L224 114.5L236.5 226Z" fill="#84EFE2"/>
<path fill-rule="evenodd" clip-rule="evenodd" d="M131 154.5V164L91 179.309L131 154.5ZM159 109.5V156L200 138V171.5L159 189.076V244L236.5 226L224 114.5L218.192 76.5L159 109.5ZM86 180.5L0 237.27V264L129.5 248.5V196L86 211.5V180.5Z" fill="#81CCC3"/>
<path d="M131 118L159 109.5L218.192 76.5L206.5 0L0 0V237.27L86 180.5L91 179.309L131 154.5V118Z" fill="#86DCD2"/>
<path d="M224 259.5L161.5 288.5L296.775 329.848L365 288.5L224 259.5Z" fill="#5B4E39"/>
<path d="M161.5 288.5L84.5 321L233 368.5L296.775 329.848L161.5 288.5Z" fill="#524633"/>
<path d="M233 368.5L365 288.5L296.775 329.848L233 368.5Z" fill="#61533D"/>
<path fill-rule="evenodd" clip-rule="evenodd" d="M144.5 118V285L154 281.5V186L196 167V144L154 162.5V114.5L144.5 118Z" fill="#777777"/>
<path d="M91 183.5V205L135 189.076V288.5L144.5 285V118L135 121.5V167L91 183.5Z" fill="#6D6B69"/>
</svg>
