<svg width="54" height="55" viewBox="0 0 54 55" xmlns="http://www.w3.org/2000/svg">
<path d="M44.878 27.4846C44.878 25.0893 44.4073 22.8015 43.4658 20.6212C42.5243 18.4408 41.2517 16.5573 39.6481 14.9707C38.0444 13.384 36.1408 12.125 33.937 11.1935C31.7333 10.262 29.421 9.7962 27 9.7962C24.579 9.7962 22.2667 10.262 20.063 11.1935C17.8592 12.125 15.9556 13.384 14.3519 14.9707C12.7483 16.5573 11.4757 18.4408 10.5342 20.6212C9.59272 22.8015 9.12198 25.0893 9.12198 27.4846C9.12198 29.88 9.59272 32.1678 10.5342 34.3481C11.4757 36.5285 12.7483 38.412 14.3519 39.9986C15.9556 41.5852 17.8592 42.8443 20.063 43.7758C22.2667 44.7073 24.579 45.1731 27 45.1731C29.421 45.1731 31.7333 44.7073 33.937 43.7758C36.1408 42.8443 38.0444 41.5852 39.6481 39.9986C41.2517 38.412 42.5243 36.5285 43.4658 34.3481C44.4073 32.1678 44.878 29.88 44.878 27.4846ZM53.4446 35.9911C53.3618 36.2982 53.1549 36.5029 52.8238 36.6052L43.7607 39.5533V48.9503C43.7607 49.2779 43.6261 49.544 43.3572 49.7487C43.0468 49.9535 42.7467 49.9944 42.457 49.8716L33.3939 46.9849L27.807 54.6008C27.6001 54.8669 27.3311 55 27 55C26.6689 55 26.3999 54.8669 26.193 54.6008L20.6061 46.9849L11.543 49.8716C11.2533 49.9944 10.9532 49.9535 10.6429 49.7487C10.3739 49.544 10.2394 49.2779 10.2394 48.9503V39.5533L1.17619 36.6052C0.845116 36.5029 0.638194 36.2982 0.555425 35.9911C0.451965 35.643 0.493349 35.3462 0.679578 35.1005L6.26646 27.4846L0.679578 19.8688C0.493349 19.6026 0.451965 19.3058 0.555425 18.9782C0.638194 18.6711 0.845116 18.4664 1.17619 18.364L10.2394 15.416V6.01898C10.2394 5.69142 10.3739 5.42527 10.6429 5.22055C10.9532 5.01582 11.2533 4.97487 11.543 5.09771L20.6061 7.98437L26.193 0.368509C26.3792 0.122836 26.6482 0 27 0C27.3518 0 27.6208 0.122836 27.807 0.368509L33.3939 7.98437L42.457 5.09771C42.7467 4.97487 43.0468 5.01582 43.3572 5.22055C43.6261 5.42527 43.7607 5.69142 43.7607 6.01898V15.416L52.8238 18.364C53.1549 18.4664 53.3618 18.6711 53.4446 18.9782C53.548 19.3058 53.5067 19.6026 53.3204 19.8688L47.7335 27.4846L53.3204 35.1005C53.5067 35.3462 53.548 35.643 53.4446 35.9911Z" fill="#FFF"/>
</svg>
