<svg width="56" height="57" viewBox="0 0 56 57" fill="none" xmlns="http://www.w3.org/2000/svg">
<path d="M32.9359 17.5127L38.3276 12.1751C37.6897 11.5441 37.2189 10.7672 36.957 9.91322C36.695 9.05922 36.6499 8.15448 36.8257 7.27913C37.0015 6.40378 37.3928 5.58484 37.9648 4.89484C38.5369 4.20484 39.2721 3.66507 40.1053 3.32336C40.9385 2.98165 41.8441 2.84853 42.7417 2.9358C43.6393 3.02307 44.5014 3.32803 45.2515 3.82367C46.0015 4.31931 46.6165 4.99033 47.0419 5.7773C47.4673 6.56428 47.69 7.44291 47.6903 8.33538C48.5925 8.33474 49.4809 8.55432 50.2768 8.97466C51.0727 9.39499 51.7516 10.0031 52.2532 10.7451C52.7548 11.4871 53.0636 12.3401 53.1524 13.2285C53.2412 14.1168 53.1071 15.0131 52.7621 15.838C52.4171 16.6628 51.8718 17.3907 51.1745 17.9572C50.4772 18.5236 49.6494 18.9111 48.7646 19.0853C47.8797 19.2595 46.9651 19.2151 46.1018 18.9559C45.2384 18.6967 44.453 18.2308 43.8152 17.5995L38.824 22.5409M16.1522 38.1846L18.8947 40.8982M11.7753 45.2291C19.2704 52.648 27.9557 56.0833 31.1643 52.9058C34.3785 49.7255 30.9065 41.1343 23.4087 33.7181C15.9136 26.2992 7.22834 22.8638 4.01969 26.0414C0.805552 29.2217 4.27748 37.8129 11.7753 45.2291Z" stroke="#FFF" stroke-width="5" stroke-linecap="round" stroke-linejoin="round"/>
<path d="M31.1668 52.9058C41.876 42.3066 44.4813 27.7022 36.9835 20.286C29.4884 12.8671 14.7286 15.445 4.01941 26.0415" stroke="#FFF" stroke-width="5" stroke-linecap="round" stroke-linejoin="round"/>
</svg>
