<svg width="42" height="51" viewBox="0 0 42 51" fill="none" xmlns="http://www.w3.org/2000/svg">
<path fill-rule="evenodd" clip-rule="evenodd" d="M36.1478 29.0714H0C0 31.0469 1.56406 32.6429 3.5 32.6429H7V36.2143H3.5C1.56406 36.2143 0 37.8103 0 39.7857C0 41.7612 1.56406 43.3571 3.5 43.3571H7V46.9286C7 48.904 8.56406 50.5 10.5 50.5C12.4359 50.5 14 48.904 14 46.9286V43.3571H31.5C33.4359 43.3571 35 41.7612 35 39.7857C35 37.8103 33.4359 36.2143 31.5 36.2143H14V32.6429H26.25C29.9988 32.6429 33.4427 31.3048 36.1478 29.0714Z" fill="#FFF"/>
<path fill-rule="evenodd" clip-rule="evenodd" d="M10.5 0.5C8.56406 0.5 7 2.09598 7 4.07143V25.5H3.5C1.56406 25.5 0 27.096 0 29.0714H36.1478C39.717 26.1245 42 21.6189 42 16.5714C42 7.69866 34.9453 0.5 26.25 0.5H10.5ZM14 25.5H26.25C31.0844 25.5 35 21.5045 35 16.5714C35 11.6384 31.0844 7.64286 26.25 7.64286H14V25.5Z" fill="#FFF"/>
</svg>
