<svg width="448" height="423" viewBox="0 0 448 423" fill="none" xmlns="http://www.w3.org/2000/svg">
<rect width="448" height="423" fill="#BBCEB8"/>
<path d="M180.339 51.0051L150.613 87.0205L163.676 181.918H170.049L166.024 143.616L175.766 131.611V103.027L188.342 112.174L196.346 93.8805L204.349 106.457L212.352 91.0222L220.355 106.457L227.215 93.8805L234.075 106.457L244.364 93.8805L251.224 106.457L263.801 93.8805L267.231 106.457L277.52 93.8805L280.379 131.611L288.382 144.759V181.918H294.774L304.96 91.0222L274.662 51.0051L226.072 39L180.339 51.0051Z" fill="#86693A"/>
<path d="M199.204 149.904H204.349V181.918H199.204V149.904Z" fill="black"/>
<path d="M247.794 149.904H252.915V165.911V181.918H247.794V149.904Z" fill="black"/>
<path d="M170.049 228.224L180.339 237.37L212.352 263.096L227.215 264.811V223.65H212.352L220.355 234.512V245.374H209.494L199.204 230.51V218.505L212.352 210.502H227.215V196.21H212.352L192.344 215.647L188.342 228.224L166.863 205.071L170.049 228.224Z" fill="#A4794A"/>
<path d="M212.352 263.096L180.339 237.37V251.09L204.349 271.671L227.215 280.246V264.811L212.352 263.096Z" fill="#F4BB9B"/>
<path d="M180.339 251.09L183.198 275.672L209.494 294.538L227.215 298.539V280.246L204.349 271.671L180.339 251.09Z" fill="#F4BB9B"/>
<path d="M255.226 271.671L227.215 280.246V298.539L251.224 294.538L263.801 280.246L271.804 264.811V251.09L255.226 271.671Z" fill="#F8CBB2"/>
<path fill-rule="evenodd" clip-rule="evenodd" d="M170.049 181.918H163.676L166.863 205.071L188.342 228.224L192.344 215.647L212.352 196.21H227.215V93.8805L220.355 106.457L212.352 91.0222L204.349 106.457L196.346 93.8805L188.342 112.174L175.766 103.027V131.611L166.024 143.616L170.049 181.918ZM204.349 149.904H199.204V181.918H204.349V149.904Z" fill="#F4BB9B"/>
<path fill-rule="evenodd" clip-rule="evenodd" d="M234.075 106.457L227.215 93.8805V196.21H239.22L263.801 215.647V228.224L292.659 200.783L294.774 181.918H288.382V144.759L280.379 131.611L277.52 93.8805L267.231 106.457L263.801 93.8805L251.224 106.457L244.364 93.8805L234.075 106.457ZM252.915 149.904H247.794V181.918H252.915V165.911V149.904Z" fill="#F8CBB2"/>
<path d="M271.804 237.37L290.097 223.65L292.659 200.783L263.801 228.224V215.647L239.22 196.21H227.215V210.502H241.506L255.226 218.505V230.51L245.508 245.374H231.216L234.075 237.37C237.314 232.797 243.336 223.65 241.506 223.65H227.215V264.811L245.508 263.096L271.804 237.37Z" fill="#A4794A"/>
<path d="M255.226 218.505L241.506 210.502H227.215V223.65H241.506C243.336 223.65 237.314 232.797 234.075 237.37L231.216 245.374H245.508L255.226 230.51V218.505Z" fill="#F8CBB2"/>
<path d="M199.204 230.51L209.494 245.374H220.355V234.512L212.352 223.65H227.215V210.502H212.352L199.204 218.505V230.51Z" fill="#F4BB9B"/>
<path d="M245.508 263.096L227.215 264.811V280.246L255.226 271.671L271.804 251.09V237.37L245.508 263.096Z" fill="#F8CBB2"/>
<path d="M47.1449 327.123L44.3842 352.276L42 374L102.024 373.055L43.694 358.565L44.3842 352.276L47.1449 327.123L102.024 303.909C82.4995 312.189 47.1449 327.123 47.1449 327.123Z" fill="#F4BB9B"/>
<path d="M405 368.283L403.333 368.31L404.153 348.063L404.445 340.843L405 327.123V347.703L404.153 348.063L354.639 369.076L405 368.283Z" fill="#F8CBB2"/>
<path fill-rule="evenodd" clip-rule="evenodd" d="M114.6 298.544C114.618 298.535 158.208 279.149 158.328 279.707C158.329 279.71 158.328 279.715 158.325 279.72C158.322 279.725 158.318 279.731 158.312 279.738C158.244 279.81 157.974 279.975 157.474 280.246L114.6 298.544Z" fill="#5AB7A6"/>
<path d="M251.224 294.538L227.215 298.539V306.829L275.806 292.823L287.968 275.672L271.804 264.811L263.801 280.246L251.224 294.538Z" fill="#F8CBB2"/>
<path d="M183.198 275.672L181.935 264.811L166.049 274.835L189.487 294.538L227.215 306.829V298.539L209.494 294.538L183.198 275.672Z" fill="#F4BB9B"/>
<path d="M227.215 315.118L280.379 298.539L294.774 280.246L287.968 275.672L275.806 292.823L227.215 306.829V315.118Z" fill="#44AF9C"/>
<path d="M183.198 300.826L227.215 315.118V306.829L189.487 294.538L166.049 274.835L158.328 279.707C158.329 279.71 158.328 279.715 158.325 279.72C158.322 279.725 158.318 279.731 158.312 279.738C158.244 279.81 157.974 279.975 157.474 280.246L183.198 300.826Z" fill="#367065"/>
<path fill-rule="evenodd" clip-rule="evenodd" d="M227.215 373.055V315.118L280.379 298.539L294.774 280.246L353.551 300.254L405 327.123V347.703L404.153 348.063L404.445 340.843L340.403 369.076L227.215 373.055Z" fill="#70DDC9"/>
<path d="M340.403 369.076H354.639L404.153 348.063L404.445 340.843L340.403 369.076Z" fill="#44AF9C"/>
<path fill-rule="evenodd" clip-rule="evenodd" d="M47.1449 327.123L102.024 303.909C109.242 300.847 114.296 298.695 114.6 298.544L157.474 280.246L183.198 300.826L227.215 315.118V373.055H121.46L44.3842 352.276L47.1449 327.123Z" fill="#5AB7A6"/>
<path d="M43.694 358.565L102.024 373.055H121.46L44.3842 352.276L43.694 358.565Z" fill="#367065"/>
</svg>
