<svg xmlns="http://www.w3.org/2000/svg" width="323" height="299" viewBox="0 0 323 299" fill="none">
<path d="M73.4091 48.6468L65.473 105.995L83.3292 133.284L94.043 126.561L123.407 100.853V82.2645L143.644 66.4444L166.658 88.1971V0L143.644 13.0516H117.058L73.4091 48.6468Z" fill="#3C3838"/>
<path d="M186.102 13.0516L166.658 0V88.1971L186.102 66.4444L209.514 82.2645V94.5251L242.052 133.284H253.559L264.273 105.995L259.114 48.6468L216.259 13.0516H186.102Z" fill="#585858"/>
<path d="M242.052 166.111L197.882 211.989L186.228 224.094L166.658 244.421V288.717L174.991 299L242.052 228.601V182.327V166.111Z" fill="#EDEDED"/>
<path d="M0 239.675V299H89.6781L70.2346 264.591L73.4091 228.601L94.043 182.327V161.761L43 224.094L0 239.675Z" fill="#341F49"/>
<path d="M166.658 244.421L148.802 224.094L138.168 211.989L94.043 161.761V182.327V230.974L157.532 299L166.658 288.717V244.421Z" fill="white"/>
<path d="M157.532 299L94.043 230.974V182.327L73.4091 228.601L70.2346 264.591L89.6781 299H157.532Z" fill="#5D2027"/>
<path d="M242.052 228.601L174.991 299H242.052L264.273 270.524L259.114 230.974L242.052 182.327V228.601Z" fill="#8D2831"/>
<path d="M295 224.094L242.052 153.06V166.111V182.327L259.114 230.974L264.273 270.524L242.052 299H323V239.675L295 224.094Z" fill="#572B55"/>
<path d="M94.043 126.561V161.761L138.168 211.989L148.802 202.102L166.658 196.96V127.519C162.748 127.514 158.367 129.021 153.961 133.284C175.388 150.687 149.596 198.938 118.645 168.88C98.0111 142.381 120.629 123.001 150.786 130.12C153.551 126.498 159.299 122.011 166.658 122.085V88.1971L143.644 66.4444L123.407 82.2645V100.853L94.043 126.561Z" fill="#CE8E94"/>
<path d="M242.052 153.06V133.284L209.514 94.5251V82.2645L186.102 66.4444L166.658 88.1971V122.085C171.621 122.135 177.316 124.259 183.324 130.12C202.371 129.593 235.703 133.284 209.514 173.23C193.244 185.491 151.977 168.88 179.356 133.284C177.008 130.71 172.326 127.527 166.658 127.519V196.96L188.086 202.102L197.882 211.989L242.052 166.111V153.06Z" fill="#E4A1A6"/>
<path d="M186.102 161.761V153.06H193.641V161.761H186.102Z" fill="#C3BCBC"/>
<path d="M136.501 161.761V153.06H147.215V161.761H136.501Z" fill="#BFAE7B"/>
<path d="M148.802 224.094L166.658 244.421V210.012L153.961 211.989L148.802 224.094Z" fill="#BFAE7B"/>
<path d="M166.658 210.012V244.421L186.228 224.094L181.737 211.989L166.658 210.012Z" fill="#BFAE7B"/>
<path d="M166.658 196.96V210.012L181.737 211.989L186.228 224.094L197.882 211.989L188.086 202.102L166.658 196.96Z" fill="white"/>
<path d="M166.658 196.96L148.802 202.102L138.168 211.989L148.802 224.094L153.961 211.989L166.658 210.012V196.96Z" fill="white"/>
<path fill-rule="evenodd" clip-rule="evenodd" d="M150.786 130.12C120.629 123.001 98.0111 142.381 118.645 168.88C149.596 198.938 175.388 150.687 153.961 133.284C158.367 129.021 162.748 127.514 166.658 127.519V122.085C159.299 122.011 153.551 126.498 150.786 130.12ZM125.391 168.88C102.535 140.403 127.375 126.956 146.818 134.075L150.786 137.239C169.039 154.642 146.818 177.976 125.391 168.88Z" fill="#8C2632"/>
<path fill-rule="evenodd" clip-rule="evenodd" d="M146.818 134.075C127.375 126.956 102.535 140.403 125.391 168.88C146.818 177.976 169.039 154.642 150.786 137.239L146.818 134.075ZM136.501 153.06V161.761H147.215V153.06H136.501Z" fill="#F4D6A4"/>
<path fill-rule="evenodd" clip-rule="evenodd" d="M183.324 130.12C202.371 129.593 235.703 133.284 209.514 173.23C193.244 185.491 151.977 168.88 179.356 133.284C177.008 130.71 172.326 127.527 166.658 127.519V122.085C171.621 122.135 177.316 124.259 183.324 130.12ZM186.102 133.284L182.134 136.053C168.643 150.291 171.023 186.282 207.926 168.484C226.179 138.821 200.652 132.23 186.102 133.284Z" fill="#7C3A30"/>
<path fill-rule="evenodd" clip-rule="evenodd" d="M182.134 136.053L186.102 133.284C200.652 132.23 226.179 138.821 207.926 168.484C171.023 186.282 168.643 150.291 182.134 136.053ZM186.102 153.06V161.761H193.641V153.06H186.102Z" fill="#FAEAEB"/>
</svg>