<svg xmlns="http://www.w3.org/2000/svg" width="363" height="335" viewBox="0 0 363 335" fill="none">
<path d="M138.339 12.0051L108.613 48.0205L121.676 142.918H128.049L124.024 104.616L133.766 64.0273L146.342 73.1741L154.346 54.8805L162.349 67.4573L170.352 52.0222L178.355 67.4573L185.215 54.8805L192.075 67.4573L202.364 54.8805L209.224 67.4573L221.801 54.8805L225.231 67.4573L235.52 54.8805L238.379 92.6109L246.382 105.759V142.918H252.774L262.96 52.0222L232.662 12.0051L184.072 0L138.339 12.0051Z" fill="black"/>
<path d="M157.204 110.904H162.349V142.918H157.204V110.904Z" fill="black"/>
<path d="M205.794 110.904H210.915V126.911V142.918H205.794V110.904Z" fill="black"/>
<path d="M128.049 189.224L138.339 198.37L170.352 224.096L185.215 225.811V184.65H170.352L178.355 195.512V206.374H167.494L157.204 191.51V179.505L170.352 171.502H185.215V157.21H170.352L150.344 176.647L146.342 189.224L124.863 166.071L128.049 189.224Z" fill="#F4BB9B"/>
<path d="M170.352 224.096L138.339 198.37V212.09L162.349 232.671L185.215 241.246V225.811L170.352 224.096Z" fill="#F8CBB2"/>
<path d="M138.339 212.09L141.198 236.672L167.494 255.538L185.215 259.539V241.246L162.349 232.671L138.339 212.09Z" fill="#F8CBB2"/>
<path d="M213.226 232.671L185.215 241.246V259.539L209.224 255.538L221.801 241.246L229.804 225.811V212.09L213.226 232.671Z" fill="#F4BB9B"/>
<path fill-rule="evenodd" clip-rule="evenodd" d="M128.049 142.918H121.676L124.863 166.071L146.342 189.224L150.344 176.647L170.352 157.21H185.215V54.8805L178.355 67.4573L170.352 52.0222L162.349 67.4573L154.346 54.8805L146.342 73.1741L133.766 64.0273L124.024 104.616L128.049 142.918ZM162.349 110.904H157.204V142.918H162.349V110.904Z" fill="#F4BB9B"/>
<path d="M229.804 198.37L248.097 184.65L250.659 161.783L221.801 189.224V176.647L197.22 157.21H185.215V171.502H199.506L213.226 179.505V191.51L203.508 206.374H189.216L192.075 198.37C195.314 193.797 201.335 184.65 199.506 184.65H185.215V225.811L203.508 224.096L229.804 198.37Z" fill="#F8CBB2"/>
<path d="M213.226 179.505L199.506 171.502H185.215V184.65H199.506C201.335 184.65 195.314 193.797 192.075 198.37L189.216 206.374H203.508L213.226 191.51V179.505Z" fill="#F8CBB2"/>
<path d="M157.204 191.51L167.494 206.374H178.355V195.512L170.352 184.65H185.215V171.502H170.352L157.204 179.505V191.51Z" fill="#F4BB9B"/>
<path d="M203.508 224.096L185.215 225.811V241.246L213.226 232.671L229.804 212.09V198.37L203.508 224.096Z" fill="#F4BB9B"/>
<path d="M5.14488 288.123L2.38421 313.276L0 335L60.0236 334.055L1.69405 319.565L2.38421 313.276L5.14488 288.123L60.0236 264.909C40.4995 273.189 5.14488 288.123 5.14488 288.123Z" fill="#F4BB9B"/>
<path d="M363 329.283L361.333 329.31L362.153 309.063L362.445 301.843L363 288.123V308.703L362.153 309.063L337.396 319.57L312.639 330.076L363 329.283Z" fill="#F8CBB2"/>
<path fill-rule="evenodd" clip-rule="evenodd" d="M72.6003 259.544C72.6183 259.535 116.208 240.149 116.328 240.707C116.329 240.71 111.503 242.544 111.5 242.549C111.497 242.554 116.318 240.731 116.312 240.738C116.244 240.81 115.974 240.975 115.474 241.246L72.6003 259.544Z" fill="#5AB7A6"/>
<path d="M209.224 255.538L185.215 259.539V269.5L233.806 253.823L245.968 236.672L229.804 225.811L221.801 241.246L209.224 255.538Z" fill="#F4BB9B"/>
<path d="M141.198 236.672L139.935 225.811L124.049 235.835L147.487 255.538L185.215 269.5V259.539L167.494 255.538L141.198 236.672Z" fill="#F8CBB2"/>
<path d="M298.403 330.076H312.639L337.396 319.57L362.153 309.063L362.445 301.843L347.472 308.444L332.5 315.044L316 322L298.403 330.076Z" fill="#4F4F4F"/>
<path d="M1.69405 319.565L60.0236 334.055H79.4598L60.0236 329L47.5 325.439L2.38421 313.276L1.69405 319.565Z" fill="#242424"/>
<path fill-rule="evenodd" clip-rule="evenodd" d="M185.215 54.8805L192.075 67.4573L202.364 54.8805L209.224 67.4573L221.801 54.8805L225.231 67.4573L235.52 54.8805L238.379 92.6109L246.382 105.759V142.918H252.774L250.659 161.783L221.801 189.224V176.647L197.22 157.21H185.215V54.8805ZM205.794 110.904H210.915V126.911V142.918H205.794V110.904ZM235 139.5L210.915 153L213.226 155L235 142.918V139.5Z" fill="#F8CBB2"/>
<path d="M210.915 153L235 139.5V142.918L213.226 155L210.915 153Z" fill="#F8CBB2"/>
<path fill-rule="evenodd" clip-rule="evenodd" d="M5.14488 288.123L60.0236 264.909C67.2416 261.847 72.296 259.695 72.6003 259.544L115.474 241.246L124.049 249.5L47.5 325.439L2.38421 313.276L5.14488 288.123ZM60.0236 329L79.4598 334.055H178.355L179 298.5L167.494 284L178.355 272.5L141.198 261.826L131.5 255.538L60.0236 329Z" fill="#F8CBB2"/>
<path d="M124.049 249.5L47.5 325.439L60.0236 329L131.5 255.538L124.049 249.5Z" fill="#242424"/>
<path fill-rule="evenodd" clip-rule="evenodd" d="M250.659 243.932L252.774 241.246L311.551 261.254L363 288.123L362.445 301.843L347.472 308.444L332.5 315.044L250.659 243.932ZM242 255.538L238.379 259.539L211.797 267.828L191.5 272.5L201.5 284L191.5 298.5L195 333.503L298.403 330.076L316 322L242 255.538Z" fill="#F4BB9B"/>
<path d="M332.5 315.044L250.659 243.932L242 255.538L316 322L332.5 315.044Z" fill="#4F4F4F"/>
<path d="M233.806 253.823L185.215 269.5V273.5L195 284L185.215 294L186.678 333.779L189.216 333.695L195 333.503L191.5 298.5L201.5 284L191.5 272.5L211.797 267.828L238.379 259.539L242 255.538L250.659 243.932L252.774 241.246L245.968 236.672L233.806 253.823Z" fill="#4F4F4F"/>
<path d="M141.198 261.826L178.355 272.5L167.494 284L179 298.5L178.355 334.055L186.678 333.779L185.215 294L175 284L185.215 273.5V269.5L147.487 255.538L124.049 235.835L116.328 240.707C116.329 240.71 111.503 242.544 111.5 242.549C111.497 242.554 116.318 240.731 116.312 240.738C116.244 240.81 115.974 240.975 115.474 241.246L124.049 249.5L131.5 255.538L141.198 261.826Z" fill="#242424"/>
<path d="M185.215 273.5L175 284L185.215 294L195 284L185.215 273.5Z" fill="#F4BB9B"/>
</svg>