<svg xmlns="http://www.w3.org/2000/svg" width="244" height="324" viewBox="0 0 244 324" fill="none">
<path fill-rule="evenodd" clip-rule="evenodd" d="M120 221V71.5L63 111L68.5 175L74 211L88 214.043L120 221ZM99 130H92V158.5H99V130Z" fill="#FFC592"/>
<path fill-rule="evenodd" clip-rule="evenodd" d="M162 211L169.5 175L177 111L120 71.5V221L146.5 214.69L162 211ZM146.5 130H139V158.5H146.5V130Z" fill="#E9AF7D"/>
<path d="M120 221L88 214.043V236.5L58 263.5L13.5 280L0 296.5V324H121.25L120 221Z" fill="#FFC592"/>
<path d="M242.5 324V296.5L227.5 280L183.5 263.5L153 236.5L146.5 214.69L120 221L121.25 324H242.5Z" fill="#E9AF7D"/>
<path d="M139 130H146.5V158.5H139V130Z" fill="black"/>
<path d="M92 130H99V158.5H92V130Z" fill="black"/>
<path d="M153 19L131 0H120.5L120 71.5L177 111L169.5 175L199 150.5V78L144.5 46.5V37.5L153 19Z" fill="#FFF492"/>
<path d="M97 46.5L46.5 78V138.5L68.5 175L63 111L120 71.5L120.5 0H110L89 19L97 37.5V46.5Z" fill="#FFF9C1"/>
<path d="M14.5 279.5L0 296.5V324L196 323.432L43.7358 323.873L32.2264 270.952L14.5 279.5Z" fill="#F1F1F1"/>
<path d="M56.3962 262.678L43.7358 267.012L32.2264 270.952L92.0755 304.695L99.5566 297.901L107.038 291.107L56.3962 262.678Z" fill="#F1F1F1"/>
<path d="M200.749 262.678L185.302 257L139.264 288.965L148.472 294.559L157.679 300.153L200.749 262.678Z" fill="#F1F1F1"/>
<path fill-rule="evenodd" clip-rule="evenodd" d="M116.245 309.935L123.151 315V323.432L109.34 317.186L116.245 309.935Z" fill="#9ED664"/>
<path fill-rule="evenodd" clip-rule="evenodd" d="M32.2264 270.952L92.0755 304.695L99.5566 297.901L116.245 309.935L109.34 317.186L123.151 323.432L43.7358 323.873L32.2264 270.952Z" fill="#89D03F"/>
<path d="M200.749 262.678L157.679 300.153L148.472 294.559L129.345 309.935L133.509 317.186L123.151 323.432H196L200.749 262.678Z" fill="#7EB048"/>
<path d="M139.264 288.965L123.151 300.153V315L129.345 309.935L148.472 294.559L139.264 288.965Z" fill="#C2E89B"/>
<path d="M123.151 323.432L133.509 317.186L129.345 309.935L123.151 315V323.432Z" fill="#89C64B"/>
<path d="M123.151 300.153L107.038 291.107L99.5566 297.901L116.245 309.935L123.151 315V300.153Z" fill="#A2E958"/>
<path d="M244 324V296.266L227 278.5L200.749 262.678L196 323.432L244 324Z" fill="#F1F1F1"/>
</svg>