<svg xmlns="http://www.w3.org/2000/svg" width="232" height="233" viewBox="0 0 232 233" fill="none">
<g clip-path="url(#clip0_221_465)">
<path d="M173.54 0.5H58.4502C53.5674 0.501921 48.8851 2.44219 45.4322 5.89447C41.9792 9.34675 40.038 14.0286 40.0352 18.9114V214.1C40.04 218.982 41.9818 223.662 45.4343 227.114C48.8869 230.566 53.568 232.507 58.4502 232.511H173.54C178.423 232.506 183.105 230.565 186.559 227.114C190.013 223.663 191.958 218.982 191.966 214.1V18.9404C191.96 14.0566 190.017 9.37478 186.562 5.92281C183.107 2.47084 178.424 0.530917 173.54 0.529" fill="#405866"/>
<path d="M161.599 14.5504H70.3939C66.5257 14.5504 62.8154 16.0845 60.0768 18.8164C57.3381 21.5482 55.7948 25.2547 55.7852 29.1229V183.791C55.7928 187.66 57.3356 191.367 60.0746 194.099C62.8137 196.832 66.5251 198.365 70.3939 198.363H161.599C169.646 198.363 176.171 191.802 176.171 183.791V29.1084C176.171 21.0609 169.628 14.5359 161.599 14.5359" fill="#85CFEA"/>
<path d="M113.462 14.5505H70.4154C66.5472 14.5505 62.8369 16.0846 60.0982 18.8164C57.3596 21.5483 55.8162 25.2548 55.8066 29.123V183.791C55.8143 187.66 57.3571 191.367 60.0961 194.099C62.8352 196.832 66.5466 198.365 70.4154 198.363H161.62C164.568 198.363 167.29 197.461 169.581 195.974C130.804 145.464 110.048 77.5638 113.473 14.5432" fill="#28A6DE"/>
<path d="M127.963 215.789C127.963 222.375 122.612 227.744 116.011 227.744C109.41 227.744 104.059 222.379 104.059 215.789C104.059 209.198 109.41 203.833 116.011 203.833C122.612 203.833 127.963 209.198 127.963 215.789ZM81.907 215.789C81.9313 216.952 81.7235 218.108 81.2955 219.189C80.8674 220.271 80.2279 221.256 79.4144 222.088C78.6008 222.919 77.6295 223.58 76.5574 224.031C75.4854 224.482 74.334 224.715 73.1708 224.716C72.0076 224.716 70.856 224.485 69.7833 224.035C68.7107 223.585 67.7386 222.926 66.924 222.095C66.1094 221.265 65.4687 220.281 65.0393 219.199C64.61 218.118 64.4006 216.963 64.4236 215.8C64.4687 213.512 65.4088 211.333 67.0421 209.731C68.6755 208.128 70.8718 207.23 73.1599 207.229C75.448 207.227 77.6455 208.123 79.2808 209.723C80.9162 211.324 81.859 213.501 81.907 215.789M150.111 215.789C150.078 216.958 150.279 218.121 150.703 219.211C151.127 220.301 151.765 221.295 152.58 222.133C153.395 222.972 154.37 223.639 155.447 224.094C156.524 224.549 157.682 224.784 158.851 224.784C160.021 224.784 161.178 224.549 162.255 224.094C163.332 223.639 164.307 222.972 165.122 222.133C165.937 221.295 166.575 220.301 167 219.211C167.424 218.121 167.625 216.958 167.591 215.789C167.591 213.471 166.67 211.248 165.031 209.609C163.392 207.97 161.169 207.049 158.851 207.049C156.533 207.049 154.31 207.97 152.671 209.609C151.032 211.248 150.111 213.471 150.111 215.789" fill="#CBD5DC"/>
</g>
<defs>
<clipPath id="clip0_221_465">
<rect width="232" height="232" fill="white" transform="translate(0 0.5)"/>
</clipPath>
</defs>
</svg>