<svg xmlns="http://www.w3.org/2000/svg" width="244" height="333" viewBox="0 0 244 333" fill="none">
<path fill-rule="evenodd" clip-rule="evenodd" d="M72.4807 16.4629L35.8847 50.1371V110.002L24.6818 127.962L35.8847 151.16L70.8113 169.867L62.0247 95.036L121.027 57.6202V0L72.4807 16.4629ZM32.1504 130.955L35.8847 121.975L48.5813 152.656L38.8721 147.418L32.1504 130.955Z" fill="#A73124"/>
<path d="M171.813 21.7011L121.027 0V57.6202L171.813 89.7977V160.139L180.775 169.867L171.066 194.562L184.51 218.508L180.775 240.957L187.128 254.324L188.244 256.672L183.866 269.393L180.775 278.373L183.866 288.282L188.244 302.319L183.866 320.304L180.775 333H212.89L208.215 318.363L200.94 295.584L206.915 266.4L203.032 256.672L200.94 251.434L206.915 230.481L200.94 214.766L206.915 199.052L200.94 169.867L212.89 136.193L206.915 50.1371L171.813 21.7011Z" fill="#C13927"/>
<path fill-rule="evenodd" clip-rule="evenodd" d="M121.027 57.6202L62.0247 95.036L70.8113 169.867L72.4807 184.085L93.3928 204.29L92.6459 231.978L121.027 251.434V59.8652V57.6202ZM103.102 118.234H97.1271V150.411H103.102V118.234Z" fill="#ECBE93"/>
<path fill-rule="evenodd" clip-rule="evenodd" d="M171.813 160.139V89.7977L121.027 57.6202V59.8652V251.434L153.888 234.971L148.66 230.481V199.8L171.066 184.085L171.813 160.139ZM150.901 118.234H144.179V150.411H150.901V118.234Z" fill="#FBD6B3"/>
<path d="M144.179 118.234H150.901V150.411H144.179V118.234Z" fill="black"/>
<path d="M97.1271 118.234H103.102V150.411H97.1271V118.234Z" fill="black"/>
<path d="M55.303 260.413L48.5813 262.724V318.876L121.027 319.641V290.918L97.1271 295.584L59.78 282.379V259.559L55.303 260.413Z" fill="#FDEDB5"/>
<path d="M92.6459 231.978L76.9619 249.937L70.987 257.42L59.78 259.559V282.379L97.1271 295.584L121.027 290.918V251.434L92.6459 231.978Z" fill="#FBD6B3"/>
<path d="M3.05 278.373L0 318.363L48.5813 318.876V262.724L3.05 278.373Z" fill="#FBD6B3"/>
<path d="M153.888 234.971L121.027 251.434V290.918L150.901 295.584L183.866 288.282L180.775 278.373L183.866 269.393L188.244 256.672L187.128 254.324L162.26 244.584L153.888 234.971Z" fill="#F4CBA4"/>
<path d="M183.866 320.304L188.244 302.319L183.866 288.282L150.901 295.584L121.027 290.918V319.641L183.866 320.304Z" fill="white"/>
<path d="M206.915 266.4L200.94 295.584L208.215 318.363H244L242.17 271.401L203.032 256.672L206.915 266.4Z" fill="#FBD6B3"/>
</svg>