<svg xmlns="http://www.w3.org/2000/svg" width="379" height="314" viewBox="0 0 379 314" fill="none">
<path d="M199.134 70.2917L201.448 80.003L240.319 83.7026L225.511 70.2917H199.134Z" fill="#62451A"/>
<path d="M138.05 83.7026L153.321 70.2917H180.623L177.847 80.003L138.05 83.7026Z" fill="#62451A"/>
<path d="M168.129 155.844L162.113 171.105L169.98 175.267L175.533 161.393L190.341 160.006L189.547 149.423L168.129 155.844Z" fill="#62451A"/>
<path d="M211.166 155.844L189.547 149.423L190.341 160.006L205.15 161.393L210.24 175.267L216.256 171.105L211.166 155.844Z" fill="#62451A"/>
<path d="M175.533 161.393L169.98 175.267L175.533 180.353L179.698 175.267L190.341 178.041V160.006L175.533 161.393Z" fill="#ECD1B5"/>
<path d="M205.15 161.393L190.341 160.006V178.041L201.448 175.267L205.15 180.353L210.24 175.267L205.15 161.393Z" fill="#DEB185"/>
<path d="M190.341 178.041L179.698 175.267L175.533 180.353L169.517 194.345L174.608 214.112L182.937 226.135H190.341V178.041Z" fill="#62451A"/>
<path d="M205.15 180.353L201.448 175.267L190.341 178.041V226.135H198.671L205.15 214.112L209.546 194.871L205.15 180.353Z" fill="#62451A"/>
<path d="M234.619 206.713L228.75 180.353L209.546 194.871L205.15 214.112L198.671 226.135H190.341L190.194 264.056L234.619 248.795L248.965 221.511L234.619 213.187V206.713Z" fill="#F0CFAF"/>
<path d="M153.321 185.341L146.695 203.476L144.381 213.187L130.961 221.511L144.381 248.795L190.194 264.056L190.341 226.135H182.937L174.608 214.112L169.517 194.345L153.321 185.341Z" fill="#DFB286"/>
<path d="M322.543 314H379L360.027 277.929L322.543 314Z" fill="#8A7D4B"/>
<path d="M18.9731 277.004L0 314H55.9939L18.9731 277.004Z" fill="#8A7D4B"/>
<path d="M138.05 111.218V104.975V102.663L124.945 98.5008L125.834 104.513L131.942 107.865L138.05 111.218Z" fill="black"/>
<path d="M240.319 102.663V105.669V111.218L256.382 102.663C256.681 99.7518 256.966 96.8195 257.232 93.8763L240.319 102.663Z" fill="black"/>
<path d="M240.319 105.669V102.663H225.511V105.669H239.247H240.319Z" fill="black"/>
<path d="M199.134 102.663V105.669H199.912H218.57V102.663H199.134Z" fill="black"/>
<path d="M177.847 104.975V102.663H169.517V104.975H177.237H177.847Z" fill="black"/>
<path d="M138.05 102.663V104.975H138.828H162.113V102.663H138.05Z" fill="black"/>
<path d="M162.113 102.663V104.975H169.517V102.663H162.113Z" fill="black"/>
<path d="M218.57 102.663V105.669H225.511V102.663H218.57Z" fill="black"/>
<path d="M162.113 171.105L133.422 155.844L153.321 185.341L169.517 194.345L175.533 180.353L169.98 175.267L162.113 171.105Z" fill="#EFCEAA"/>
<path d="M249.112 155.844L216.256 171.105L210.24 175.267L205.15 180.353L209.546 194.871L228.75 180.353L249.112 155.844Z" fill="#E0B289"/>
<path d="M190.194 264.056L144.381 248.795L190.194 294.577V264.056Z" fill="#B7A460"/>
<path d="M234.619 248.795L190.194 264.056V294.577L212.407 271.686L234.619 248.795Z" fill="#B7A462"/>
<path fill-rule="evenodd" clip-rule="evenodd" d="M117.541 210.412L146.695 203.476L144.381 213.187L130.961 221.511L144.381 248.795L190.194 294.577L190.341 314H55.9939L18.9731 277.004L9.71795 268.218L44.4249 239.084L86.536 218.736L107.36 215.499L117.541 210.412Z" fill="#B40808"/>
<path d="M322.543 314L360.027 277.929L366.968 270.068L335.038 241.396L295.703 221.511L271.177 215.499L251.741 206.713H234.619V213.187L248.965 221.511L234.619 248.795L212.407 271.686L190.194 294.577L190.341 314H322.543Z" fill="#CB0000"/>
<path d="M177.847 102.663V104.975V105.669L189.043 106.825C189.026 105.443 189.059 104.885 189.043 103.492L177.847 102.663Z" fill="black"/>
<path d="M199.134 105.669V102.663L189.043 103.492C189.077 104.894 189.004 104.883 189.039 106.236L189.043 106.825L199.134 105.669Z" fill="black"/>
<path d="M176.311 119.773L177.237 118.848H172.914H169.517V119.773H176.311Z" fill="black"/>
<path d="M138.05 111.218V119.773H138.828V118.848V104.975H138.05V111.218Z" fill="black"/>
<path d="M199.134 105.669V119.773H218.57V118.848H199.912V105.669H199.134Z" fill="black"/>
<path fill-rule="evenodd" clip-rule="evenodd" d="M218.57 92.0266H225.511V102.663H218.57V92.0266ZM218.57 118.848V105.669H225.511V118.848H218.57ZM218.57 119.773V131.334H225.511V119.773H218.57Z" fill="#D0F6FF"/>
<path d="M218.57 118.848V119.773H225.511V118.848H218.57Z" fill="black"/>
<path fill-rule="evenodd" clip-rule="evenodd" d="M189.547 149.423L211.166 155.844L216.256 171.105L249.112 155.844C249.783 151.97 250.611 148.424 251.466 144.766C253.825 134.664 256.382 123.712 256.382 102.663L240.319 111.218V119.773H225.511V131.334H218.57V119.773H199.134V105.669L189.043 106.825L189.039 106.236C189.702 132.058 189.547 149.423 189.547 149.423ZM239.247 105.669H225.511V118.848H239.247V105.669ZM199.912 118.848H218.57V105.669H199.912V118.848ZM189.043 103.492C188.353 75.7405 187.565 37.8318 187.565 3.33432e-10C225.974 -0.000112901 244.947 28.6716 244.947 28.6716C244.947 28.6716 256.382 59.6553 257.232 93.8763L240.319 102.663H225.511V92.0266H218.57V102.663H199.134L189.043 103.492ZM201.448 80.003L199.134 70.2917H225.511L240.319 83.7026L201.448 80.003Z" fill="#E0B289"/>
<path d="M240.319 119.773V111.218V105.669H239.247V118.848H225.511V119.773H240.319Z" fill="black"/>
<path d="M177.847 105.669V104.975H177.237V118.848L176.311 119.773H177.847V105.669Z" fill="black"/>
<path fill-rule="evenodd" clip-rule="evenodd" d="M187.565 3.33432e-10C150.544 3.69956 135.273 28.6716 135.273 28.6716C127.252 45.3138 124.945 98.5008 124.945 98.5008L138.05 102.663H162.113V92.0266H169.517V102.663H177.847L189.043 103.492C189.059 104.885 189.026 105.443 189.043 106.825L177.847 105.669V119.773H176.311H169.517V131.334H162.113V119.773H138.828H138.05V111.218L131.942 107.865L125.834 104.513L124.945 131.334L133.422 155.844L162.113 171.105L168.129 155.844L189.547 149.423C189.547 149.423 189.706 132.63 189.043 106.825L189.039 106.236C189.004 104.883 189.077 104.894 189.043 103.492C188.353 75.7405 187.565 37.8318 187.565 3.33432e-10ZM162.113 118.848V104.975H138.828V118.848H162.113ZM169.517 118.848H172.914H177.237V104.975H169.517V118.848ZM153.321 70.2917L138.05 83.7026L177.847 80.003L180.623 70.2917H153.321Z" fill="#EFCEAA"/>
<path d="M138.828 118.848V119.773H162.113V118.848H138.828Z" fill="black"/>
<path fill-rule="evenodd" clip-rule="evenodd" d="M162.113 92.0266H169.517V102.663H162.113V92.0266ZM162.113 118.848V104.975H169.517V118.848H162.113ZM162.113 119.773V131.334H169.517V119.773H165.815H162.113Z" fill="#D0F6FF"/>
<path d="M169.517 119.773V118.848H162.113V119.773H165.815H169.517Z" fill="black"/>
</svg>